<mxfile host="app.diagrams.net" modified="2024-06-10T13:30:47.130Z" agent="Mozilla/5.0 (Windows NT 10.0; Win64; x64) AppleWebKit/537.36 (KHTML, like Gecko) Chrome/125.0.0.0 Safari/537.36" etag="rHoTeJ3oTKx-c5Y53W3C" version="24.5.2" type="device">
  <diagram id="C5RBs43oDa-KdzZeNtuy" name="Page-1">
    <mxGraphModel dx="2625" dy="2562" grid="1" gridSize="10" guides="1" tooltips="1" connect="1" arrows="1" fold="1" page="1" pageScale="1" pageWidth="827" pageHeight="1169" math="0" shadow="0">
      <root>
        <mxCell id="WIyWlLk6GJQsqaUBKTNV-0" />
        <mxCell id="WIyWlLk6GJQsqaUBKTNV-1" parent="WIyWlLk6GJQsqaUBKTNV-0" />
        <mxCell id="0yyHVujEcadkl1VGOjeH-0" value="Purchasing " style="swimlane;" vertex="1" parent="WIyWlLk6GJQsqaUBKTNV-1">
          <mxGeometry x="339" y="-1160" width="200" height="1470" as="geometry" />
        </mxCell>
        <mxCell id="0yyHVujEcadkl1VGOjeH-4" value="Check Stock" style="rounded=1;whiteSpace=wrap;html=1;fontSize=12;glass=0;strokeWidth=1;shadow=0;" vertex="1" parent="0yyHVujEcadkl1VGOjeH-0">
          <mxGeometry x="40" y="130" width="120" height="40" as="geometry" />
        </mxCell>
        <mxCell id="0yyHVujEcadkl1VGOjeH-6" value="Membuat dan mengirimkan Purchase Order (PO)" style="rounded=1;whiteSpace=wrap;html=1;fontSize=12;glass=0;strokeWidth=1;shadow=0;" vertex="1" parent="0yyHVujEcadkl1VGOjeH-0">
          <mxGeometry x="40" y="240" width="120" height="70" as="geometry" />
        </mxCell>
        <mxCell id="0yyHVujEcadkl1VGOjeH-39" value="menerima hasil pengecekan barang dari gudang" style="whiteSpace=wrap;html=1;rounded=1;glass=0;strokeWidth=1;shadow=0;" vertex="1" parent="0yyHVujEcadkl1VGOjeH-0">
          <mxGeometry x="50" y="990" width="120" height="60" as="geometry" />
        </mxCell>
        <mxCell id="0yyHVujEcadkl1VGOjeH-41" value="mengirim hasil pengecekan barang" style="whiteSpace=wrap;html=1;rounded=1;glass=0;strokeWidth=1;shadow=0;" vertex="1" parent="0yyHVujEcadkl1VGOjeH-0">
          <mxGeometry x="50" y="1090" width="120" height="60" as="geometry" />
        </mxCell>
        <mxCell id="0yyHVujEcadkl1VGOjeH-42" value="" style="edgeStyle=orthogonalEdgeStyle;rounded=0;orthogonalLoop=1;jettySize=auto;html=1;" edge="1" parent="0yyHVujEcadkl1VGOjeH-0" source="0yyHVujEcadkl1VGOjeH-39" target="0yyHVujEcadkl1VGOjeH-41">
          <mxGeometry relative="1" as="geometry" />
        </mxCell>
        <mxCell id="0yyHVujEcadkl1VGOjeH-47" value="Menerima tagihan dan memproses pembayaran" style="whiteSpace=wrap;html=1;rounded=1;glass=0;strokeWidth=1;shadow=0;" vertex="1" parent="0yyHVujEcadkl1VGOjeH-0">
          <mxGeometry x="50" y="1230" width="120" height="60" as="geometry" />
        </mxCell>
        <mxCell id="0yyHVujEcadkl1VGOjeH-54" style="edgeStyle=orthogonalEdgeStyle;rounded=0;orthogonalLoop=1;jettySize=auto;html=1;" edge="1" parent="0yyHVujEcadkl1VGOjeH-0" source="0yyHVujEcadkl1VGOjeH-53" target="0yyHVujEcadkl1VGOjeH-4">
          <mxGeometry relative="1" as="geometry" />
        </mxCell>
        <mxCell id="0yyHVujEcadkl1VGOjeH-53" value="start" style="ellipse;whiteSpace=wrap;html=1;shadow=0;strokeWidth=1;spacing=6;spacingTop=-4;fillColor=#d5e8d4;strokeColor=#82b366;" vertex="1" parent="0yyHVujEcadkl1VGOjeH-0">
          <mxGeometry x="70" y="40" width="60" height="50" as="geometry" />
        </mxCell>
        <mxCell id="0yyHVujEcadkl1VGOjeH-1" value="Vendor    " style="swimlane;" vertex="1" parent="WIyWlLk6GJQsqaUBKTNV-1">
          <mxGeometry x="539" y="-1160" width="280" height="1470" as="geometry" />
        </mxCell>
        <mxCell id="0yyHVujEcadkl1VGOjeH-21" style="edgeStyle=orthogonalEdgeStyle;rounded=0;orthogonalLoop=1;jettySize=auto;html=1;" edge="1" parent="0yyHVujEcadkl1VGOjeH-1" source="0yyHVujEcadkl1VGOjeH-18" target="0yyHVujEcadkl1VGOjeH-20">
          <mxGeometry relative="1" as="geometry" />
        </mxCell>
        <mxCell id="0yyHVujEcadkl1VGOjeH-18" value="Menerma Purchase Order (PO)" style="rounded=1;whiteSpace=wrap;html=1;fontSize=12;glass=0;strokeWidth=1;shadow=0;" vertex="1" parent="0yyHVujEcadkl1VGOjeH-1">
          <mxGeometry x="80" y="240" width="120" height="70" as="geometry" />
        </mxCell>
        <mxCell id="0yyHVujEcadkl1VGOjeH-20" value="Mengirimkan barang berdasarkan PO." style="rounded=1;whiteSpace=wrap;html=1;fontSize=12;glass=0;strokeWidth=1;shadow=0;" vertex="1" parent="0yyHVujEcadkl1VGOjeH-1">
          <mxGeometry x="80" y="460" width="120" height="70" as="geometry" />
        </mxCell>
        <mxCell id="0yyHVujEcadkl1VGOjeH-46" value="" style="edgeStyle=orthogonalEdgeStyle;rounded=0;orthogonalLoop=1;jettySize=auto;html=1;" edge="1" parent="0yyHVujEcadkl1VGOjeH-1" source="0yyHVujEcadkl1VGOjeH-43" target="0yyHVujEcadkl1VGOjeH-45">
          <mxGeometry relative="1" as="geometry" />
        </mxCell>
        <mxCell id="0yyHVujEcadkl1VGOjeH-43" value="melakukan pengecekan dokumen PO dengan hasil inspeksi dari gudang" style="whiteSpace=wrap;html=1;rounded=1;glass=0;strokeWidth=1;shadow=0;" vertex="1" parent="0yyHVujEcadkl1VGOjeH-1">
          <mxGeometry x="50" y="1077.5" width="120" height="85" as="geometry" />
        </mxCell>
        <mxCell id="0yyHVujEcadkl1VGOjeH-45" value="Mengirimkan tagihan/invoice" style="whiteSpace=wrap;html=1;rounded=1;glass=0;strokeWidth=1;shadow=0;" vertex="1" parent="0yyHVujEcadkl1VGOjeH-1">
          <mxGeometry x="50" y="1230" width="120" height="60" as="geometry" />
        </mxCell>
        <mxCell id="0yyHVujEcadkl1VGOjeH-49" value="payment valid" style="whiteSpace=wrap;html=1;rounded=1;glass=0;strokeWidth=1;shadow=0;" vertex="1" parent="0yyHVujEcadkl1VGOjeH-1">
          <mxGeometry x="50" y="1330" width="120" height="60" as="geometry" />
        </mxCell>
        <mxCell id="0yyHVujEcadkl1VGOjeH-51" value="end" style="ellipse;whiteSpace=wrap;html=1;rounded=1;glass=0;strokeWidth=1;shadow=0;fillColor=#f8cecc;strokeColor=#b85450;" vertex="1" parent="0yyHVujEcadkl1VGOjeH-1">
          <mxGeometry x="210" y="1335" width="50" height="50" as="geometry" />
        </mxCell>
        <mxCell id="0yyHVujEcadkl1VGOjeH-52" value="" style="edgeStyle=orthogonalEdgeStyle;rounded=0;orthogonalLoop=1;jettySize=auto;html=1;" edge="1" parent="0yyHVujEcadkl1VGOjeH-1" source="0yyHVujEcadkl1VGOjeH-49" target="0yyHVujEcadkl1VGOjeH-51">
          <mxGeometry relative="1" as="geometry" />
        </mxCell>
        <mxCell id="0yyHVujEcadkl1VGOjeH-2" value="Gudang" style="swimlane;" vertex="1" parent="WIyWlLk6GJQsqaUBKTNV-1">
          <mxGeometry x="9" y="-1160" width="330" height="1470" as="geometry" />
        </mxCell>
        <mxCell id="0yyHVujEcadkl1VGOjeH-9" style="edgeStyle=orthogonalEdgeStyle;rounded=0;orthogonalLoop=1;jettySize=auto;html=1;" edge="1" parent="0yyHVujEcadkl1VGOjeH-2" source="0yyHVujEcadkl1VGOjeH-3" target="0yyHVujEcadkl1VGOjeH-8">
          <mxGeometry relative="1" as="geometry" />
        </mxCell>
        <mxCell id="0yyHVujEcadkl1VGOjeH-3" value="Melakukan pengecekan stock" style="rounded=1;whiteSpace=wrap;html=1;fontSize=12;glass=0;strokeWidth=1;shadow=0;" vertex="1" parent="0yyHVujEcadkl1VGOjeH-2">
          <mxGeometry x="150" y="120" width="120" height="60" as="geometry" />
        </mxCell>
        <mxCell id="0yyHVujEcadkl1VGOjeH-7" value="Memberikan informasi stok barang yang sudah habis" style="rounded=1;whiteSpace=wrap;html=1;fontSize=12;glass=0;strokeWidth=1;shadow=0;" vertex="1" parent="0yyHVujEcadkl1VGOjeH-2">
          <mxGeometry x="130" y="340" width="160" height="60" as="geometry" />
        </mxCell>
        <mxCell id="0yyHVujEcadkl1VGOjeH-10" style="edgeStyle=orthogonalEdgeStyle;rounded=0;orthogonalLoop=1;jettySize=auto;html=1;" edge="1" parent="0yyHVujEcadkl1VGOjeH-2" source="0yyHVujEcadkl1VGOjeH-8" target="0yyHVujEcadkl1VGOjeH-7">
          <mxGeometry relative="1" as="geometry" />
        </mxCell>
        <mxCell id="0yyHVujEcadkl1VGOjeH-15" value="ada" style="edgeLabel;html=1;align=center;verticalAlign=middle;resizable=0;points=[];" vertex="1" connectable="0" parent="0yyHVujEcadkl1VGOjeH-10">
          <mxGeometry x="-0.4452" y="1" relative="1" as="geometry">
            <mxPoint as="offset" />
          </mxGeometry>
        </mxCell>
        <mxCell id="0yyHVujEcadkl1VGOjeH-8" value="ada stok&amp;nbsp;&lt;div&gt;barang habis?&lt;/div&gt;" style="rhombus;whiteSpace=wrap;html=1;shadow=0;fontFamily=Helvetica;fontSize=12;align=center;strokeWidth=1;spacing=6;spacingTop=-4;" vertex="1" parent="0yyHVujEcadkl1VGOjeH-2">
          <mxGeometry x="160" y="220" width="100" height="80" as="geometry" />
        </mxCell>
        <mxCell id="0yyHVujEcadkl1VGOjeH-11" value="end" style="ellipse;whiteSpace=wrap;html=1;shadow=0;strokeWidth=1;spacing=6;spacingTop=-4;fillColor=#f8cecc;strokeColor=#b85450;" vertex="1" parent="0yyHVujEcadkl1VGOjeH-2">
          <mxGeometry x="20" y="235" width="60" height="50" as="geometry" />
        </mxCell>
        <mxCell id="0yyHVujEcadkl1VGOjeH-12" value="" style="edgeStyle=orthogonalEdgeStyle;rounded=0;orthogonalLoop=1;jettySize=auto;html=1;" edge="1" parent="0yyHVujEcadkl1VGOjeH-2" source="0yyHVujEcadkl1VGOjeH-8" target="0yyHVujEcadkl1VGOjeH-11">
          <mxGeometry relative="1" as="geometry" />
        </mxCell>
        <mxCell id="0yyHVujEcadkl1VGOjeH-14" value="no" style="edgeLabel;html=1;align=center;verticalAlign=middle;resizable=0;points=[];" vertex="1" connectable="0" parent="0yyHVujEcadkl1VGOjeH-12">
          <mxGeometry x="-0.219" y="-1" relative="1" as="geometry">
            <mxPoint as="offset" />
          </mxGeometry>
        </mxCell>
        <mxCell id="0yyHVujEcadkl1VGOjeH-16" value="tidak" style="edgeLabel;html=1;align=center;verticalAlign=middle;resizable=0;points=[];" vertex="1" connectable="0" parent="0yyHVujEcadkl1VGOjeH-12">
          <mxGeometry x="-0.1238" y="-2" relative="1" as="geometry">
            <mxPoint as="offset" />
          </mxGeometry>
        </mxCell>
        <mxCell id="0yyHVujEcadkl1VGOjeH-26" value="" style="edgeStyle=orthogonalEdgeStyle;rounded=0;orthogonalLoop=1;jettySize=auto;html=1;" edge="1" parent="0yyHVujEcadkl1VGOjeH-2" source="0yyHVujEcadkl1VGOjeH-22" target="0yyHVujEcadkl1VGOjeH-25">
          <mxGeometry relative="1" as="geometry" />
        </mxCell>
        <mxCell id="0yyHVujEcadkl1VGOjeH-22" value="Menerima barang" style="whiteSpace=wrap;html=1;rounded=1;glass=0;strokeWidth=1;shadow=0;" vertex="1" parent="0yyHVujEcadkl1VGOjeH-2">
          <mxGeometry x="95" y="460" width="120" height="60" as="geometry" />
        </mxCell>
        <mxCell id="0yyHVujEcadkl1VGOjeH-28" value="" style="edgeStyle=orthogonalEdgeStyle;rounded=0;orthogonalLoop=1;jettySize=auto;html=1;" edge="1" parent="0yyHVujEcadkl1VGOjeH-2" source="0yyHVujEcadkl1VGOjeH-25" target="0yyHVujEcadkl1VGOjeH-27">
          <mxGeometry relative="1" as="geometry">
            <Array as="points">
              <mxPoint x="155" y="710" />
              <mxPoint x="155" y="710" />
            </Array>
          </mxGeometry>
        </mxCell>
        <mxCell id="0yyHVujEcadkl1VGOjeH-25" value="Mengecek barang dari vendor" style="whiteSpace=wrap;html=1;rounded=1;glass=0;strokeWidth=1;shadow=0;" vertex="1" parent="0yyHVujEcadkl1VGOjeH-2">
          <mxGeometry x="95" y="555" width="120" height="60" as="geometry" />
        </mxCell>
        <mxCell id="0yyHVujEcadkl1VGOjeH-34" value="" style="edgeStyle=orthogonalEdgeStyle;rounded=0;orthogonalLoop=1;jettySize=auto;html=1;" edge="1" parent="0yyHVujEcadkl1VGOjeH-2" source="0yyHVujEcadkl1VGOjeH-27" target="0yyHVujEcadkl1VGOjeH-33">
          <mxGeometry relative="1" as="geometry" />
        </mxCell>
        <mxCell id="0yyHVujEcadkl1VGOjeH-35" value="tidak" style="edgeLabel;html=1;align=center;verticalAlign=middle;resizable=0;points=[];" vertex="1" connectable="0" parent="0yyHVujEcadkl1VGOjeH-34">
          <mxGeometry x="-0.4133" relative="1" as="geometry">
            <mxPoint x="-82" y="18" as="offset" />
          </mxGeometry>
        </mxCell>
        <mxCell id="0yyHVujEcadkl1VGOjeH-27" value="ada kerusakan?" style="rhombus;whiteSpace=wrap;html=1;rounded=1;glass=0;strokeWidth=1;shadow=0;" vertex="1" parent="0yyHVujEcadkl1VGOjeH-2">
          <mxGeometry x="97.5" y="650" width="115" height="85" as="geometry" />
        </mxCell>
        <mxCell id="0yyHVujEcadkl1VGOjeH-30" value="mencatat barang rusak" style="whiteSpace=wrap;html=1;rounded=1;glass=0;strokeWidth=1;shadow=0;" vertex="1" parent="0yyHVujEcadkl1VGOjeH-2">
          <mxGeometry x="190" y="850" width="120" height="60" as="geometry" />
        </mxCell>
        <mxCell id="0yyHVujEcadkl1VGOjeH-31" value="" style="edgeStyle=orthogonalEdgeStyle;rounded=0;orthogonalLoop=1;jettySize=auto;html=1;" edge="1" parent="0yyHVujEcadkl1VGOjeH-2" source="0yyHVujEcadkl1VGOjeH-27" target="0yyHVujEcadkl1VGOjeH-30">
          <mxGeometry relative="1" as="geometry" />
        </mxCell>
        <mxCell id="0yyHVujEcadkl1VGOjeH-32" value="ya" style="edgeLabel;html=1;align=center;verticalAlign=middle;resizable=0;points=[];" vertex="1" connectable="0" parent="0yyHVujEcadkl1VGOjeH-31">
          <mxGeometry x="-0.783" y="2" relative="1" as="geometry">
            <mxPoint x="93" y="52" as="offset" />
          </mxGeometry>
        </mxCell>
        <mxCell id="0yyHVujEcadkl1VGOjeH-38" style="edgeStyle=orthogonalEdgeStyle;rounded=0;orthogonalLoop=1;jettySize=auto;html=1;" edge="1" parent="0yyHVujEcadkl1VGOjeH-2" source="0yyHVujEcadkl1VGOjeH-33" target="0yyHVujEcadkl1VGOjeH-36">
          <mxGeometry relative="1" as="geometry" />
        </mxCell>
        <mxCell id="0yyHVujEcadkl1VGOjeH-33" value="Barang di terima dan dimasukkan stok" style="whiteSpace=wrap;html=1;rounded=1;glass=0;strokeWidth=1;shadow=0;" vertex="1" parent="0yyHVujEcadkl1VGOjeH-2">
          <mxGeometry x="12.5" y="850" width="120" height="60" as="geometry" />
        </mxCell>
        <mxCell id="0yyHVujEcadkl1VGOjeH-36" value="memberikan hasil pengecekan barang dari vendor" style="whiteSpace=wrap;html=1;rounded=1;glass=0;strokeWidth=1;shadow=0;" vertex="1" parent="0yyHVujEcadkl1VGOjeH-2">
          <mxGeometry x="105" y="990" width="120" height="60" as="geometry" />
        </mxCell>
        <mxCell id="0yyHVujEcadkl1VGOjeH-37" value="" style="edgeStyle=orthogonalEdgeStyle;rounded=0;orthogonalLoop=1;jettySize=auto;html=1;" edge="1" parent="0yyHVujEcadkl1VGOjeH-2" source="0yyHVujEcadkl1VGOjeH-30" target="0yyHVujEcadkl1VGOjeH-36">
          <mxGeometry relative="1" as="geometry" />
        </mxCell>
        <mxCell id="0yyHVujEcadkl1VGOjeH-17" style="edgeStyle=orthogonalEdgeStyle;rounded=0;orthogonalLoop=1;jettySize=auto;html=1;entryX=0.5;entryY=1;entryDx=0;entryDy=0;" edge="1" parent="WIyWlLk6GJQsqaUBKTNV-1" source="0yyHVujEcadkl1VGOjeH-7" target="0yyHVujEcadkl1VGOjeH-6">
          <mxGeometry relative="1" as="geometry">
            <Array as="points">
              <mxPoint x="439" y="-730" />
            </Array>
          </mxGeometry>
        </mxCell>
        <mxCell id="0yyHVujEcadkl1VGOjeH-23" value="" style="edgeStyle=orthogonalEdgeStyle;rounded=0;orthogonalLoop=1;jettySize=auto;html=1;" edge="1" parent="WIyWlLk6GJQsqaUBKTNV-1" source="0yyHVujEcadkl1VGOjeH-20" target="0yyHVujEcadkl1VGOjeH-22">
          <mxGeometry relative="1" as="geometry">
            <Array as="points">
              <mxPoint x="409" y="-665" />
              <mxPoint x="409" y="-665" />
            </Array>
          </mxGeometry>
        </mxCell>
        <mxCell id="0yyHVujEcadkl1VGOjeH-40" value="" style="edgeStyle=orthogonalEdgeStyle;rounded=0;orthogonalLoop=1;jettySize=auto;html=1;" edge="1" parent="WIyWlLk6GJQsqaUBKTNV-1" source="0yyHVujEcadkl1VGOjeH-36" target="0yyHVujEcadkl1VGOjeH-39">
          <mxGeometry relative="1" as="geometry" />
        </mxCell>
        <mxCell id="0yyHVujEcadkl1VGOjeH-44" value="" style="edgeStyle=orthogonalEdgeStyle;rounded=0;orthogonalLoop=1;jettySize=auto;html=1;" edge="1" parent="WIyWlLk6GJQsqaUBKTNV-1" source="0yyHVujEcadkl1VGOjeH-41" target="0yyHVujEcadkl1VGOjeH-43">
          <mxGeometry relative="1" as="geometry" />
        </mxCell>
        <mxCell id="0yyHVujEcadkl1VGOjeH-48" value="" style="edgeStyle=orthogonalEdgeStyle;rounded=0;orthogonalLoop=1;jettySize=auto;html=1;" edge="1" parent="WIyWlLk6GJQsqaUBKTNV-1" source="0yyHVujEcadkl1VGOjeH-45" target="0yyHVujEcadkl1VGOjeH-47">
          <mxGeometry relative="1" as="geometry" />
        </mxCell>
        <mxCell id="0yyHVujEcadkl1VGOjeH-50" value="" style="edgeStyle=orthogonalEdgeStyle;rounded=0;orthogonalLoop=1;jettySize=auto;html=1;" edge="1" parent="WIyWlLk6GJQsqaUBKTNV-1" source="0yyHVujEcadkl1VGOjeH-47" target="0yyHVujEcadkl1VGOjeH-49">
          <mxGeometry relative="1" as="geometry">
            <Array as="points">
              <mxPoint x="449" y="260" />
            </Array>
          </mxGeometry>
        </mxCell>
        <mxCell id="0yyHVujEcadkl1VGOjeH-55" style="edgeStyle=orthogonalEdgeStyle;rounded=0;orthogonalLoop=1;jettySize=auto;html=1;" edge="1" parent="WIyWlLk6GJQsqaUBKTNV-1" source="0yyHVujEcadkl1VGOjeH-4" target="0yyHVujEcadkl1VGOjeH-3">
          <mxGeometry relative="1" as="geometry" />
        </mxCell>
        <mxCell id="0yyHVujEcadkl1VGOjeH-56" style="edgeStyle=orthogonalEdgeStyle;rounded=0;orthogonalLoop=1;jettySize=auto;html=1;" edge="1" parent="WIyWlLk6GJQsqaUBKTNV-1" source="0yyHVujEcadkl1VGOjeH-6" target="0yyHVujEcadkl1VGOjeH-18">
          <mxGeometry relative="1" as="geometry" />
        </mxCell>
      </root>
    </mxGraphModel>
  </diagram>
</mxfile>
